<svg xmlns="http://www.w3.org/2000/svg" viewBox="0 0 273.26 78.53"><defs><style>.cls-1{fill:#ef4353;}.cls-2{fill:#444545;}</style></defs><g id="Layer_2" data-name="Layer 2"><g id="Layer_1-2" data-name="Layer 1"><path class="cls-1" d="M2.23,23.63c.88.08,1.85.13,2.93.16.91.08,2,.12,3.34.14s2.78,0,4.4.08L16.45,5.37a6.8,6.8,0,0,0,.16-1.88,5.61,5.61,0,0,0-.2-1.1,2.59,2.59,0,0,0-.28-.64A.68.68,0,0,1,16,1.24.78.78,0,0,1,16.47.7a4.88,4.88,0,0,1,1-.38,8.57,8.57,0,0,1,1.3-.24A12.13,12.13,0,0,1,20.09,0,6.1,6.1,0,0,1,24.5,1.42a3.6,3.6,0,0,1,1.06,3.41L21.88,24.12q5.46,0,11.55-.11t12.24-.38c.64-.53,1.12-.73,1.42-.59s.45.49.44,1a7.38,7.38,0,0,1-.35,2,11.75,11.75,0,0,1-.9,2.28A7.89,7.89,0,0,1,45,30.24a2.12,2.12,0,0,1-1.52.8q-7.17.16-12.66.19l-10.26,0L13.87,66.12c-.34,1.79-.22,3.08.37,3.87A3.2,3.2,0,0,0,17,71.17,5.38,5.38,0,0,0,20.31,70a14.85,14.85,0,0,0,2.83-3,25.18,25.18,0,0,0,2.3-3.84c.67-1.38,1.25-2.68,1.76-3.89a5.93,5.93,0,0,1,1.63-2.5A3,3,0,0,1,30.67,56a2.64,2.64,0,0,1,1.37.4,4.17,4.17,0,0,1,1.17,1,4.36,4.36,0,0,1,.71,1.45A3.52,3.52,0,0,1,34,60.53l-.05.27a1.72,1.72,0,0,1-.21.48A53.38,53.38,0,0,1,30.57,67a30.49,30.49,0,0,1-4.42,5.53,23.68,23.68,0,0,1-5.71,4.19,14.78,14.78,0,0,1-7,1.67,12.78,12.78,0,0,1-4.26-.67,6.72,6.72,0,0,1-3-2.15A8.1,8.1,0,0,1,4.6,71.81a16.22,16.22,0,0,1,.25-5.58l6.67-35q-2,0-3.51,0c-1,0-1.88,0-2.57-.08S3.93,31.08,3.31,31a2.66,2.66,0,0,1-2.25-1.15,5.26,5.26,0,0,1-1-2.55,4.62,4.62,0,0,1,.37-2.55A1.87,1.87,0,0,1,2.23,23.63Z"/><path class="cls-1" d="M58.12,43.34a21.66,21.66,0,0,1-2.34,6.29,27.64,27.64,0,0,1-4.53,6.1,33,33,0,0,1-6.5,5.15,30.22,30.22,0,0,1-8.24,3.47,9.56,9.56,0,0,0,1,2.65,7.13,7.13,0,0,0,1.88,2.18,8.87,8.87,0,0,0,2.83,1.45,13,13,0,0,0,4,.54A15.29,15.29,0,0,0,52.46,70a16.75,16.75,0,0,0,4.82-3.2,21.91,21.91,0,0,0,3.61-4.46,32.45,32.45,0,0,0,2.52-5,4.28,4.28,0,0,1,2.12-2.44,3.84,3.84,0,0,1,2.61-.3,3.53,3.53,0,0,1,2,1.37,2.71,2.71,0,0,1,.3,2.5,39.13,39.13,0,0,1-1.51,3.81,27.74,27.74,0,0,1-2.48,4.35,32.29,32.29,0,0,1-3.64,4.33,25,25,0,0,1-4.94,3.78,27.07,27.07,0,0,1-6.37,2.69,28.78,28.78,0,0,1-7.92,1A19.35,19.35,0,0,1,36,76.94a15.81,15.81,0,0,1-5.93-4.24,16.07,16.07,0,0,1-3.4-6.82,21.57,21.57,0,0,1,0-9.21A33.5,33.5,0,0,1,30.07,47a34.53,34.53,0,0,1,5.6-7.76,26,26,0,0,1,6.79-5.13,15.26,15.26,0,0,1,7-1.85,11,11,0,0,1,4.35.8,7.3,7.3,0,0,1,3,2.28,8,8,0,0,1,1.45,3.52A13.07,13.07,0,0,1,58.12,43.34Zm-21.65,13a8.28,8.28,0,0,0-.12,1c0,.32-.07.66-.14,1a21.26,21.26,0,0,0,4.48-2.47,21,21,0,0,0,3.73-3.44,20.75,20.75,0,0,0,2.78-4.21,18.55,18.55,0,0,0,1.6-4.76,4.82,4.82,0,0,0-.12-2.84,1.68,1.68,0,0,0-1.64-1,4.73,4.73,0,0,0-2.76.92,11,11,0,0,0-2.43,2.39,19.92,19.92,0,0,0-2,3.33c-.6,1.23-1.14,2.48-1.61,3.73a36.3,36.3,0,0,0-1.14,3.57A25.68,25.68,0,0,0,36.47,56.34Z"/><path class="cls-1" d="M67,38.73a6.73,6.73,0,0,0,.17-2.26,3.5,3.5,0,0,1,0-1.29,1.93,1.93,0,0,1,1.18-1.32,5.08,5.08,0,0,1,2.3-.51A6,6,0,0,1,75,34.78a3.59,3.59,0,0,1,1.07,3.41l-1,4.94a48.56,48.56,0,0,1,3.47-4.3,27.3,27.3,0,0,1,3.74-3.46,16.85,16.85,0,0,1,4-2.31,11.06,11.06,0,0,1,4.25-.83,9.19,9.19,0,0,1,4.69,1,6.27,6.27,0,0,1,2.51,2.63,8.6,8.6,0,0,1,.86,3.6,18.24,18.24,0,0,1-.31,3.86L94,66.12c0,.25-.1.65-.17,1.21a6,6,0,0,0,0,1.69,3.23,3.23,0,0,0,.61,1.5,1.93,1.93,0,0,0,1.65.65A5.38,5.38,0,0,0,99.41,70a14.85,14.85,0,0,0,2.83-3,25.18,25.18,0,0,0,2.3-3.84c.67-1.38,1.25-2.68,1.76-3.89a5.85,5.85,0,0,1,1.64-2.5,3,3,0,0,1,1.83-.78,2.64,2.64,0,0,1,1.37.4,4,4,0,0,1,1.17,1,4.36,4.36,0,0,1,.71,1.45,3.52,3.52,0,0,1,.07,1.61l0,.27a1.72,1.72,0,0,1-.21.48A51.69,51.69,0,0,1,109.67,67a30.49,30.49,0,0,1-4.42,5.53,23.68,23.68,0,0,1-5.71,4.19,14.78,14.78,0,0,1-7,1.67,9.05,9.05,0,0,1-4-.83,7.23,7.23,0,0,1-4.07-5.51,11.59,11.59,0,0,1,.09-4l4.26-22.35c.17-.86.3-1.66.41-2.42a8.46,8.46,0,0,0,.06-2,2.69,2.69,0,0,0-.5-1.37,1.49,1.49,0,0,0-1.27-.51A6.5,6.5,0,0,0,84,41.09a30.25,30.25,0,0,0-4.46,4.19,40.8,40.8,0,0,0-4.27,5.83,27.34,27.34,0,0,0-3,6.52L69.29,73.69c-.1.54-.22,1.08-.34,1.64a4.48,4.48,0,0,1-.64,1.5A3.72,3.72,0,0,1,67.11,78a3.84,3.84,0,0,1-2,.46,10.48,10.48,0,0,1-1.86-.19,4.62,4.62,0,0,1-1.72-.7,3.05,3.05,0,0,1-1.12-1.45,4.54,4.54,0,0,1-.07-2.5Z"/><path class="cls-2" d="M146.33,77.87,134,40.21h-.23q.49,8.38.49,15.73V77.87H128V32.78h9.77l11.77,35.87,12.3-35.87h9.8V77.87H165V55.57q0-3.36.16-8.76c.1-3.6.2-5.78.27-6.54h-.23l-12.73,37.6Z"/><path class="cls-2" d="M210.87,55.31q0,11-4.83,17.11t-13.71,6.11q-9,0-13.78-6.06t-4.81-17.22q0-11.18,4.83-17.15t13.82-6q8.84,0,13.66,6.08T210.87,55.31Zm-30.25,0q0,8.32,3,12.63a9.93,9.93,0,0,0,8.75,4.3q5.78,0,8.72-4.26T204,55.31q0-8.3-2.92-12.59t-8.68-4.28q-5.83,0-8.8,4.28T180.62,55.31Z"/><path class="cls-2" d="M220.88,59.9v18h-7.37V32.82h12.73q8.73,0,12.93,3.27T243.36,46q0,8.41-8.76,12l12.74,19.95H239l-10.79-18Zm0-6.1H226q5.15,0,7.46-1.92a6.93,6.93,0,0,0,2.32-5.67c0-2.55-.84-4.38-2.5-5.49s-4.18-1.67-7.53-1.67h-4.87Z"/><path class="cls-2" d="M273.26,77.91H247.75V32.82h25.51v6.23H255.12V51.33h17V57.5h-17V71.65h18.14Z"/></g></g></svg>