<svg xmlns="http://www.w3.org/2000/svg" viewBox="0 0 299.41 79.42"><defs><style>.cls-1{fill:#ef4353;stroke:#ef4353;stroke-miterlimit:10;}.cls-2{fill:#444545;}</style></defs><g id="Layer_2" data-name="Layer 2"><g id="Layer_1-2" data-name="Layer 1"><path class="cls-1" d="M2.73,24.13c.88.08,1.85.13,2.93.16.91.08,2,.12,3.34.14s2.78,0,4.4.08L17,5.87A6.8,6.8,0,0,0,17.11,4a5.61,5.61,0,0,0-.2-1.1,2.59,2.59,0,0,0-.28-.64.68.68,0,0,1-.11-.51A.78.78,0,0,1,17,1.2a4.88,4.88,0,0,1,1-.38,8.57,8.57,0,0,1,1.3-.24A12.13,12.13,0,0,1,20.59.5,6.1,6.1,0,0,1,25,1.92a3.6,3.6,0,0,1,1.06,3.41L22.38,24.62q5.46,0,11.55-.11t12.24-.38c.64-.53,1.12-.73,1.42-.59s.45.49.44,1a7.38,7.38,0,0,1-.35,2,11.75,11.75,0,0,1-.9,2.28,7.89,7.89,0,0,1-1.32,1.91,2.12,2.12,0,0,1-1.52.8q-7.17.16-12.66.19L21,31.76,14.37,66.62c-.34,1.79-.22,3.08.37,3.87a3.2,3.2,0,0,0,2.74,1.18,5.38,5.38,0,0,0,3.33-1.18,14.85,14.85,0,0,0,2.83-3,25.18,25.18,0,0,0,2.3-3.84c.67-1.38,1.25-2.68,1.76-3.89a5.93,5.93,0,0,1,1.63-2.5,3,3,0,0,1,1.84-.78,2.64,2.64,0,0,1,1.37.4,4.17,4.17,0,0,1,1.17,1,4.36,4.36,0,0,1,.71,1.45A3.52,3.52,0,0,1,34.49,61l-.05.27a1.72,1.72,0,0,1-.21.48,53.38,53.38,0,0,1-3.16,5.75,30.49,30.49,0,0,1-4.42,5.53,23.68,23.68,0,0,1-5.71,4.19,14.78,14.78,0,0,1-7,1.67,12.78,12.78,0,0,1-4.26-.67,6.72,6.72,0,0,1-3-2.15A8.1,8.1,0,0,1,5.1,72.31a16.22,16.22,0,0,1,.25-5.58l6.67-35q-2,0-3.51,0c-1,0-1.88,0-2.57-.08s-1.51-.07-2.13-.11a2.66,2.66,0,0,1-2.25-1.15,5.26,5.26,0,0,1-1-2.55,4.62,4.62,0,0,1,.37-2.55A1.87,1.87,0,0,1,2.73,24.13Z"/><path class="cls-1" d="M58.62,43.84a21.66,21.66,0,0,1-2.34,6.29,27.64,27.64,0,0,1-4.53,6.1,33,33,0,0,1-6.5,5.15A30.22,30.22,0,0,1,37,64.85a9.56,9.56,0,0,0,1,2.65,7.13,7.13,0,0,0,1.88,2.18,8.87,8.87,0,0,0,2.83,1.45,13,13,0,0,0,4,.54A15.29,15.29,0,0,0,53,70.46a16.75,16.75,0,0,0,4.82-3.2,21.91,21.91,0,0,0,3.61-4.46,32.45,32.45,0,0,0,2.52-5A4.28,4.28,0,0,1,66,55.37a3.84,3.84,0,0,1,2.61-.3,3.53,3.53,0,0,1,2,1.37,2.71,2.71,0,0,1,.3,2.5,39.13,39.13,0,0,1-1.51,3.81A27.74,27.74,0,0,1,67,67.1a32.29,32.29,0,0,1-3.64,4.33,25,25,0,0,1-4.94,3.78A27.07,27.07,0,0,1,52,77.9a28.78,28.78,0,0,1-7.92,1,19.35,19.35,0,0,1-7.59-1.48,15.81,15.81,0,0,1-5.93-4.24,16.07,16.07,0,0,1-3.4-6.82,21.57,21.57,0,0,1,0-9.21,33.5,33.5,0,0,1,3.42-9.7,34.53,34.53,0,0,1,5.6-7.76A26,26,0,0,1,43,34.58a15.26,15.26,0,0,1,7-1.85,11,11,0,0,1,4.35.8,7.3,7.3,0,0,1,3,2.28,8,8,0,0,1,1.45,3.52A13.07,13.07,0,0,1,58.62,43.84ZM37,56.84a8.28,8.28,0,0,0-.12,1c0,.32-.07.66-.14,1a21.26,21.26,0,0,0,4.48-2.47,21,21,0,0,0,3.73-3.44,20.75,20.75,0,0,0,2.78-4.21A18.55,18.55,0,0,0,49.3,44a4.82,4.82,0,0,0-.12-2.84,1.68,1.68,0,0,0-1.64-1,4.73,4.73,0,0,0-2.76.92,11,11,0,0,0-2.43,2.39,19.92,19.92,0,0,0-2,3.33c-.6,1.23-1.14,2.48-1.61,3.73A36.3,36.3,0,0,0,37.57,54,25.68,25.68,0,0,0,37,56.84Z"/><path class="cls-1" d="M67.45,39.23A6.73,6.73,0,0,0,67.62,37a3.5,3.5,0,0,1,0-1.29,1.93,1.93,0,0,1,1.18-1.32,5.08,5.08,0,0,1,2.3-.51,6,6,0,0,1,4.4,1.43,3.59,3.59,0,0,1,1.07,3.41l-1,4.94a48.56,48.56,0,0,1,3.47-4.3,27.3,27.3,0,0,1,3.74-3.46,16.85,16.85,0,0,1,4-2.31,11.06,11.06,0,0,1,4.25-.83,9.19,9.19,0,0,1,4.69,1,6.27,6.27,0,0,1,2.51,2.63,8.6,8.6,0,0,1,.86,3.6,18.24,18.24,0,0,1-.31,3.86L94.46,66.62c0,.25-.1.65-.17,1.21a6,6,0,0,0,0,1.69,3.23,3.23,0,0,0,.61,1.5,1.93,1.93,0,0,0,1.65.65,5.38,5.38,0,0,0,3.33-1.18,14.85,14.85,0,0,0,2.83-3,25.18,25.18,0,0,0,2.3-3.84c.67-1.38,1.25-2.68,1.76-3.89a5.85,5.85,0,0,1,1.64-2.5,3,3,0,0,1,1.83-.78,2.64,2.64,0,0,1,1.37.4,4,4,0,0,1,1.17,1,4.36,4.36,0,0,1,.71,1.45,3.52,3.52,0,0,1,.07,1.61l0,.27a1.72,1.72,0,0,1-.21.48,51.69,51.69,0,0,1-3.16,5.75,30.49,30.49,0,0,1-4.42,5.53A23.68,23.68,0,0,1,100,77.25a14.78,14.78,0,0,1-7,1.67,9.05,9.05,0,0,1-4-.83,7.23,7.23,0,0,1-4.07-5.51,11.59,11.59,0,0,1,.09-4l4.26-22.35c.17-.86.3-1.66.41-2.42a8.46,8.46,0,0,0,.06-2,2.69,2.69,0,0,0-.5-1.37A1.49,1.49,0,0,0,88,40a6.5,6.5,0,0,0-3.44,1.61,30.25,30.25,0,0,0-4.46,4.19,40.8,40.8,0,0,0-4.27,5.83,27.34,27.34,0,0,0-3,6.52L69.79,74.19c-.1.54-.22,1.08-.34,1.64a4.48,4.48,0,0,1-.64,1.5,3.72,3.72,0,0,1-1.2,1.13,3.84,3.84,0,0,1-2,.46,10.48,10.48,0,0,1-1.86-.19A4.62,4.62,0,0,1,62,78a3.05,3.05,0,0,1-1.12-1.45,4.54,4.54,0,0,1-.07-2.5Z"/><path class="cls-2" d="M160.2,78.28l-.07-29.77L145.38,73.14h-3.72L126.9,48.89V78.28h-8V33.37h6.86l17.84,29.77,17.51-29.77H168l.07,44.91Z"/><path class="cls-2" d="M183.68,75.94A22,22,0,0,1,175,67.66a22.72,22.72,0,0,1-3.15-11.84A22.66,22.66,0,0,1,175,44a22,22,0,0,1,8.66-8.28,27.21,27.21,0,0,1,24.76,0A22.16,22.16,0,0,1,217.1,44a22.68,22.68,0,0,1,3.15,11.87,22.65,22.65,0,0,1-3.15,11.87,22.11,22.11,0,0,1-8.66,8.25,27.21,27.21,0,0,1-24.76,0Zm20.46-6.36a14.58,14.58,0,0,0,5.65-5.64,17.09,17.09,0,0,0,0-16.23,14.61,14.61,0,0,0-5.65-5.65,17.17,17.17,0,0,0-16.16,0,14.61,14.61,0,0,0-5.65,5.65,17.09,17.09,0,0,0,0,16.23A14.58,14.58,0,0,0,188,69.58a17.17,17.17,0,0,0,16.16,0Z"/><path class="cls-2" d="M253.35,78.28l-9.17-13.16a15.1,15.1,0,0,1-1.74.07H232.31V78.28H224V33.37h18.47a24.87,24.87,0,0,1,10.17,1.92,14.85,14.85,0,0,1,6.64,5.52,15.44,15.44,0,0,1,2.31,8.53,15.21,15.21,0,0,1-2.47,8.73A14.66,14.66,0,0,1,252,63.52l10.33,14.76Zm-3-35.55c-1.88-1.54-4.64-2.3-8.27-2.3h-9.75V58.32h9.75q5.44,0,8.27-2.34a8.12,8.12,0,0,0,2.83-6.64A8,8,0,0,0,250.33,42.73Z"/><path class="cls-2" d="M299.41,71.28v7H265.73V33.37h32.78v7H274.07V52h21.69V58.9H274.07V71.28Z"/></g></g></svg>